<svg width="400" height="83" viewBox="0 0 400 83" fill="none" xmlns="http://www.w3.org/2000/svg">
  <defs>
    <style>
      @keyframes blink {
        0%    { opacity: 0; }
        40%   { opacity: 0; }
        40.1% { opacity: 1; }
        99.9% { opacity: 1; }
        100%  { opacity: 0; }
      }
      .c{ fill: #4265af; }
      .e { fill:#4265af; animation: blink 1.2s linear infinite; }
    </style>
  </defs>
  <path class="e" d="M286.578 26.1506V62.0312H285.417V26.1506H286.578Z" />
  <path class="c" d="M261.54 56.4545C259.57 56.4545 257.856 55.9669 256.398 54.9915C254.939 54.0161 253.813 52.6809 253.017 50.9858C252.222 49.2907 251.824 47.3589 251.824 45.1903C251.824 43.0123 252.222 41.071 253.017 39.3665C253.822 37.6619 254.925 36.3172 256.327 35.3324C257.728 34.3475 259.329 33.8551 261.128 33.8551C262.349 33.8551 263.505 34.1013 264.594 34.5938C265.692 35.0767 266.658 35.7775 267.491 36.696C268.334 37.6146 268.992 38.7225 269.466 40.0199C269.949 41.3172 270.19 42.7756 270.19 44.3949V45.4744H252.918V43.8977H268.457C268.457 42.3163 268.135 40.8911 267.491 39.6222C266.848 38.3532 265.972 37.3447 264.864 36.5966C263.756 35.8485 262.51 35.4744 261.128 35.4744C259.679 35.4744 258.386 35.8816 257.25 36.696C256.123 37.5009 255.228 38.59 254.565 39.9631C253.912 41.3362 253.571 42.8703 253.543 44.5653V45.2756C253.543 47.0937 253.86 48.7273 254.494 50.1761C255.138 51.6155 256.057 52.7566 257.25 53.5994C258.443 54.4328 259.873 54.8494 261.54 54.8494C262.733 54.8494 263.751 54.6506 264.594 54.2528C265.446 53.8456 266.142 53.3532 266.682 52.7756C267.222 52.1979 267.629 51.6392 267.903 51.0994L269.48 51.7386C269.149 52.4678 268.633 53.197 267.932 53.9261C267.241 54.6458 266.36 55.2472 265.29 55.7301C264.229 56.2131 262.979 56.4545 261.54 56.4545Z" />
  <path class="c" d="M246.699 38.8835L245.094 39.3097C244.838 38.5142 244.473 37.8277 244 37.25C243.526 36.6723 242.93 36.2273 242.21 35.9148C241.5 35.5928 240.648 35.4318 239.653 35.4318C238.053 35.4318 236.741 35.8295 235.719 36.625C234.705 37.4205 234.199 38.4574 234.199 39.7358C234.199 40.7775 234.544 41.6392 235.236 42.321C235.927 42.9934 236.983 43.5047 238.403 43.8551L241.756 44.6932C243.479 45.1193 244.776 45.8106 245.648 46.767C246.519 47.714 246.955 48.893 246.955 50.304C246.955 51.5066 246.628 52.572 245.974 53.5C245.321 54.428 244.417 55.1525 243.261 55.6733C242.116 56.1941 240.78 56.4545 239.256 56.4545C237.22 56.4545 235.548 55.9811 234.241 55.0341C232.935 54.0777 232.097 52.7093 231.727 50.929L233.389 50.5028C233.702 51.9233 234.35 53.0076 235.335 53.7557C236.33 54.4943 237.632 54.8636 239.241 54.8636C241.022 54.8636 242.456 54.4422 243.545 53.5994C244.644 52.7566 245.193 51.6771 245.193 50.3608C245.193 49.357 244.871 48.5095 244.227 47.8182C243.583 47.1269 242.608 46.6203 241.301 46.2983L237.821 45.446C236.041 45.0104 234.705 44.3144 233.815 43.358C232.925 42.392 232.48 41.2036 232.48 39.7926C232.48 38.6184 232.788 37.5862 233.403 36.696C234.019 35.8059 234.866 35.1098 235.946 34.608C237.026 34.1061 238.261 33.8551 239.653 33.8551C241.5 33.8551 243.006 34.2907 244.17 35.1619C245.335 36.0331 246.178 37.2737 246.699 38.8835Z" />
  <path class="c" d="M216.398 56.4688C215.139 56.4688 213.984 56.2178 212.933 55.7159C211.891 55.214 211.053 54.4801 210.418 53.5142C209.793 52.5483 209.481 51.3741 209.481 49.9915C209.481 49.0824 209.642 48.2822 209.964 47.5909C210.286 46.8996 210.783 46.303 211.455 45.8011C212.128 45.2992 212.989 44.8873 214.04 44.5653C215.092 44.2339 216.346 43.9782 217.805 43.7983C218.913 43.6657 219.902 43.5379 220.773 43.4148C221.645 43.2822 222.326 43.0786 222.819 42.804C223.321 42.5294 223.572 42.1127 223.572 41.554V40.6449C223.572 39.054 223.07 37.7898 222.066 36.8523C221.062 35.9148 219.68 35.446 217.918 35.446C216.356 35.446 215.04 35.7917 213.969 36.483C212.909 37.1648 212.165 38.0455 211.739 39.125L210.106 38.5142C210.522 37.4725 211.124 36.6061 211.91 35.9148C212.705 35.2235 213.614 34.7074 214.637 34.3665C215.669 34.0256 216.749 33.8551 217.876 33.8551C218.851 33.8551 219.779 33.9924 220.66 34.267C221.55 34.5417 222.341 34.9583 223.032 35.517C223.733 36.0758 224.287 36.7907 224.694 37.6619C225.101 38.5237 225.305 39.5559 225.305 40.7585V56H223.572V52.0653H223.444C223.065 52.8797 222.544 53.6231 221.881 54.2955C221.228 54.9583 220.437 55.4886 219.509 55.8864C218.591 56.2746 217.554 56.4688 216.398 56.4688ZM216.569 54.8636C217.933 54.8636 219.14 54.5322 220.191 53.8693C221.252 53.197 222.08 52.2784 222.677 51.1136C223.273 49.9489 223.572 48.6278 223.572 47.1506V43.9403C223.354 44.1297 223.037 44.3002 222.62 44.4517C222.213 44.5937 221.749 44.7216 221.228 44.8352C220.717 44.9394 220.177 45.0341 219.609 45.1193C219.05 45.1951 218.505 45.2661 217.975 45.3324C216.384 45.5218 215.087 45.8153 214.083 46.2131C213.089 46.6013 212.36 47.1127 211.896 47.7472C211.441 48.3816 211.214 49.1487 211.214 50.0483C211.214 51.535 211.725 52.7093 212.748 53.571C213.771 54.4328 215.044 54.8636 216.569 54.8636Z" />
  <path class="c" d="M196.54 56.4545C194.57 56.4545 192.856 55.9669 191.398 54.9915C189.939 54.0161 188.813 52.6809 188.017 50.9858C187.222 49.2907 186.824 47.3589 186.824 45.1903C186.824 43.0123 187.222 41.071 188.017 39.3665C188.822 37.6619 189.925 36.3172 191.327 35.3324C192.728 34.3475 194.329 33.8551 196.128 33.8551C197.349 33.8551 198.505 34.1013 199.594 34.5938C200.692 35.0767 201.658 35.7775 202.491 36.696C203.334 37.6146 203.992 38.7225 204.466 40.0199C204.949 41.3172 205.19 42.7756 205.19 44.3949V45.4744H187.918V43.8977H203.457C203.457 42.3163 203.135 40.8911 202.491 39.6222C201.848 38.3532 200.972 37.3447 199.864 36.5966C198.756 35.8485 197.51 35.4744 196.128 35.4744C194.679 35.4744 193.386 35.8816 192.25 36.696C191.123 37.5009 190.228 38.59 189.565 39.9631C188.912 41.3362 188.571 42.8703 188.543 44.5653V45.2756C188.543 47.0937 188.86 48.7273 189.494 50.1761C190.138 51.6155 191.057 52.7566 192.25 53.5994C193.443 54.4328 194.873 54.8494 196.54 54.8494C197.733 54.8494 198.751 54.6506 199.594 54.2528C200.446 53.8456 201.142 53.3532 201.682 52.7756C202.222 52.1979 202.629 51.6392 202.903 51.0994L204.48 51.7386C204.149 52.4678 203.633 53.197 202.932 53.9261C202.241 54.6458 201.36 55.2472 200.29 55.7301C199.229 56.2131 197.979 56.4545 196.54 56.4545Z" />
  <path class="c" d="M180.624 26.9091V56H178.891V26.9091H180.624Z" />
  <path class="c" d="M164.54 56.4545C162.57 56.4545 160.856 55.9669 159.398 54.9915C157.939 54.0161 156.813 52.6809 156.017 50.9858C155.222 49.2907 154.824 47.3589 154.824 45.1903C154.824 43.0123 155.222 41.071 156.017 39.3665C156.822 37.6619 157.925 36.3172 159.327 35.3324C160.728 34.3475 162.329 33.8551 164.128 33.8551C165.349 33.8551 166.505 34.1013 167.594 34.5938C168.692 35.0767 169.658 35.7775 170.491 36.696C171.334 37.6146 171.992 38.7225 172.466 40.0199C172.949 41.3172 173.19 42.7756 173.19 44.3949V45.4744H155.918V43.8977H171.457C171.457 42.3163 171.135 40.8911 170.491 39.6222C169.848 38.3532 168.972 37.3447 167.864 36.5966C166.756 35.8485 165.51 35.4744 164.128 35.4744C162.679 35.4744 161.386 35.8816 160.25 36.696C159.123 37.5009 158.228 38.59 157.565 39.9631C156.912 41.3362 156.571 42.8703 156.543 44.5653V45.2756C156.543 47.0937 156.86 48.7273 157.494 50.1761C158.138 51.6155 159.057 52.7566 160.25 53.5994C161.443 54.4328 162.873 54.8494 164.54 54.8494C165.733 54.8494 166.751 54.6506 167.594 54.2528C168.446 53.8456 169.142 53.3532 169.682 52.7756C170.222 52.1979 170.629 51.6392 170.903 51.0994L172.48 51.7386C172.149 52.4678 171.633 53.197 170.932 53.9261C170.241 54.6458 169.36 55.2472 168.29 55.7301C167.229 56.2131 165.979 56.4545 164.54 56.4545Z" />
  <path class="c" d="M131.694 56V26.9091H140.657C142.494 26.9091 144.075 27.2689 145.401 27.9886C146.727 28.7083 147.745 29.7074 148.455 30.9858C149.165 32.2547 149.52 33.732 149.52 35.4176C149.52 37.0843 149.165 38.5521 148.455 39.821C147.745 41.0805 146.727 42.0653 145.401 42.7756C144.085 43.4858 142.508 43.8409 140.671 43.8409H132.645V42.179H140.628C142.124 42.179 143.403 41.8996 144.463 41.3409C145.524 40.7822 146.338 40.0009 146.907 38.9972C147.475 37.9839 147.759 36.7907 147.759 35.4176C147.759 34.035 147.475 32.8324 146.907 31.8097C146.338 30.7775 145.519 29.9773 144.449 29.4091C143.389 28.8409 142.11 28.5568 140.614 28.5568H133.469V56H131.694ZM143.64 42.8182L150.799 56H148.753L141.637 42.8182H143.64Z" />
</svg>
